<svg width="644" height="643" viewBox="0 0 644 643" fill="none" xmlns="http://www.w3.org/2000/svg">
<circle cx="323.064" cy="319.689" r="238.283" fill="white"/>
<path fill-rule="evenodd" clip-rule="evenodd" d="M322.318 601.198C477.396 601.198 603.113 475.481 603.113 320.403C603.113 165.324 477.396 39.6075 322.318 39.6075C167.239 39.6075 41.5225 165.324 41.5225 320.403C41.5225 475.481 167.239 601.198 322.318 601.198ZM322.318 602.198C477.949 602.198 604.113 476.034 604.113 320.403C604.113 164.771 477.949 38.6075 322.318 38.6075C166.686 38.6075 40.5225 164.771 40.5225 320.403C40.5225 476.034 166.686 602.198 322.318 602.198Z" fill="#C5EBF5"/>
<path fill-rule="evenodd" clip-rule="evenodd" d="M322.318 639.624C498.619 639.624 641.54 496.703 641.54 320.402C641.54 144.101 498.619 1.1806 322.318 1.1806C146.017 1.1806 3.09644 144.101 3.09644 320.402C3.09644 496.703 146.017 639.624 322.318 639.624ZM322.318 640.624C499.171 640.624 642.54 497.256 642.54 320.402C642.54 143.549 499.171 0.180603 322.318 0.180603C145.465 0.180603 2.09644 143.549 2.09644 320.402C2.09644 497.256 145.465 640.624 322.318 640.624Z" fill="#E2F5FA"/>
<circle opacity="0.5" cx="323.064" cy="315.847" r="184.038" fill="#C5EBF5"/>
<circle cx="323.064" cy="310.721" r="136.632" fill="#003682"/>
<path fill-rule="evenodd" clip-rule="evenodd" d="M323.065 399.967C375.184 399.967 417.434 357.717 417.434 305.598C417.434 253.479 375.184 211.229 323.065 211.229C270.947 211.229 228.696 253.479 228.696 305.598C228.696 357.717 270.947 399.967 323.065 399.967ZM323.065 400.967C375.736 400.967 418.434 358.269 418.434 305.598C418.434 252.927 375.736 210.229 323.065 210.229C270.394 210.229 227.696 252.927 227.696 305.598C227.696 358.269 270.394 400.967 323.065 400.967Z" fill="#0055DC"/>
<path fill-rule="evenodd" clip-rule="evenodd" d="M323.064 359.243C355.522 359.243 381.834 332.93 381.834 300.473C381.834 268.015 355.522 241.702 323.064 241.702C290.606 241.702 264.294 268.015 264.294 300.473C264.294 332.93 290.606 359.243 323.064 359.243ZM323.064 360.243C356.074 360.243 382.834 333.483 382.834 300.473C382.834 267.462 356.074 240.702 323.064 240.702C290.054 240.702 263.294 267.462 263.294 300.473C263.294 333.483 290.054 360.243 323.064 360.243Z" fill="#6ECCE5"/>
<path fill-rule="evenodd" clip-rule="evenodd" d="M323.064 326.215C340.111 326.215 353.931 312.395 353.931 295.348C353.931 278.3 340.111 264.481 323.064 264.481C306.017 264.481 292.197 278.3 292.197 295.348C292.197 312.395 306.017 326.215 323.064 326.215ZM323.064 327.215C340.664 327.215 354.931 312.947 354.931 295.348C354.931 277.748 340.664 263.481 323.064 263.481C305.465 263.481 291.197 277.748 291.197 295.348C291.197 312.947 305.465 327.215 323.064 327.215Z" fill="#C5EBF5"/>
<path d="M196.798 361.737L323.065 288.944L449.208 362.035C428.607 411.388 379.887 446.074 323.065 446.074C266.129 446.074 217.327 411.249 196.798 361.737Z" fill="#0055DC"/>
<path d="M104.43 414.594L322.815 288.51L323.065 288.943L323.315 288.51L541.698 414.594C541.564 414.901 541.43 415.209 541.295 415.516L326.104 291.275L506.552 471.722C506.338 471.98 506.124 472.237 505.909 472.493L325.397 291.982L455.701 517.674C455.424 517.86 455.146 518.046 454.868 518.231L324.531 292.482L392.884 547.579C392.565 547.677 392.246 547.774 391.927 547.87L323.565 292.741V557.971C323.398 557.972 323.231 557.972 323.064 557.972C322.898 557.972 322.732 557.972 322.565 557.971V292.74L254.203 547.871C253.883 547.774 253.564 547.677 253.245 547.58L321.599 292.483L191.262 518.232C190.984 518.047 190.706 517.861 190.429 517.675L320.732 291.984L140.221 472.495C140.006 472.239 139.792 471.982 139.578 471.724L320.028 291.274L104.834 415.516C104.699 415.209 104.564 414.902 104.43 414.594Z" fill="#6ECCE5"/>
<path d="M323.567 174.091C323.399 174.09 323.232 174.09 323.064 174.09C322.898 174.09 322.733 174.09 322.567 174.091V176.424H323.567V174.091Z" fill="#6ECCE5"/>
<path d="M217.878 223.515C218.092 223.256 218.308 222.998 218.524 222.741L219.588 223.422L219.049 224.264L217.878 223.515Z" fill="#6ECCE5"/>
<path d="M192.738 269.572C192.839 269.25 192.942 268.929 193.045 268.609L194.436 268.834L194.275 269.822L192.738 269.572Z" fill="#6ECCE5"/>
<path d="M453.061 268.542C453.165 268.862 453.268 269.183 453.369 269.505L451.425 269.822L451.264 268.835L453.061 268.542Z" fill="#6ECCE5"/>
<path d="M427.606 222.743C427.822 223 428.038 223.258 428.252 223.517L427.085 224.264L426.546 223.422L427.606 222.743Z" fill="#6ECCE5"/>
<path d="M322.567 182.493V179.458H323.567V182.493H322.567Z" fill="#6ECCE5"/>
<path d="M322.567 188.563V185.528H323.567V188.563H322.567Z" fill="#6ECCE5"/>
<path d="M322.567 194.632V191.597H323.567V194.632H322.567Z" fill="#6ECCE5"/>
<path d="M322.567 200.702V197.667H323.567V200.702H322.567Z" fill="#6ECCE5"/>
<path d="M322.567 206.771V203.736H323.567V206.771H322.567Z" fill="#6ECCE5"/>
<path d="M322.567 212.841V209.806H323.567V212.841H322.567Z" fill="#6ECCE5"/>
<path d="M322.567 218.91V215.875H323.567V218.91H322.567Z" fill="#6ECCE5"/>
<path d="M322.567 224.98V221.945H323.567V224.98H322.567Z" fill="#6ECCE5"/>
<path d="M322.567 231.049V228.014H323.567V231.049H322.567Z" fill="#6ECCE5"/>
<path d="M322.567 237.119V234.084H323.567V237.119H322.567Z" fill="#6ECCE5"/>
<path d="M322.567 243.188V240.153H323.567V243.188H322.567Z" fill="#6ECCE5"/>
<path d="M322.567 249.258V246.223H323.567V249.258H322.567Z" fill="#6ECCE5"/>
<path d="M322.567 255.327V252.292H323.567V255.327H322.567Z" fill="#6ECCE5"/>
<path d="M322.567 261.397V258.362H323.567V261.397H322.567Z" fill="#6ECCE5"/>
<path d="M322.567 267.466V264.431H323.567V267.466H322.567Z" fill="#6ECCE5"/>
<path d="M322.567 273.535V270.501H323.567V273.535H322.567Z" fill="#6ECCE5"/>
<path d="M322.567 279.605V276.57H323.567V279.605H322.567Z" fill="#6ECCE5"/>
<path d="M322.567 285.674V282.64H323.567V285.674H322.567Z" fill="#6ECCE5"/>
<path d="M324.018 289.023L323.567 288.763V288.709H323.475L323.393 288.662L323.365 288.709H322.769L322.742 288.662L322.66 288.709H322.567V288.763L322.116 289.023L322.086 289.005L322.05 289.061L321.876 289.162L321.928 289.252L321.764 289.508L321.667 289.492L321.631 289.717L321.547 289.847L321.604 289.883L321.591 289.96L320.098 290.203L321.511 290.456L321.507 290.479L321.601 290.494L321.688 290.981L323.067 290.734L324.445 290.98L324.532 290.494L324.622 290.479L324.618 290.456L326.038 290.202L324.537 289.958L324.525 289.886L324.586 289.847L324.496 289.706L324.461 289.492L324.369 289.507L324.206 289.253L324.259 289.162L324.083 289.061L324.047 289.005L324.018 289.023Z" fill="#6ECCE5"/>
<path d="M380.402 191.92L381.919 189.291L381.053 188.791L379.535 191.42L380.402 191.92Z" fill="#6ECCE5"/>
<path d="M377.367 197.176L378.884 194.548L378.018 194.048L376.501 196.676L377.367 197.176Z" fill="#6ECCE5"/>
<path d="M374.332 202.432L375.849 199.804L374.983 199.304L373.466 201.932L374.332 202.432Z" fill="#6ECCE5"/>
<path d="M371.297 207.689L372.815 205.06L371.949 204.56L370.431 207.189L371.297 207.689Z" fill="#6ECCE5"/>
<path d="M368.263 212.945L369.78 210.317L368.914 209.817L367.397 212.445L368.263 212.945Z" fill="#6ECCE5"/>
<path d="M365.228 218.201L366.745 215.573L365.879 215.073L364.362 217.701L365.228 218.201Z" fill="#6ECCE5"/>
<path d="M362.193 223.458L363.71 220.829L362.844 220.329L361.327 222.958L362.193 223.458Z" fill="#6ECCE5"/>
<path d="M359.158 228.714L360.676 226.086L359.81 225.586L358.292 228.214L359.158 228.714Z" fill="#6ECCE5"/>
<path d="M356.124 233.97L357.641 231.342L356.775 230.842L355.258 233.47L356.124 233.97Z" fill="#6ECCE5"/>
<path d="M353.089 239.227L354.606 236.599L353.74 236.099L352.223 238.727L353.089 239.227Z" fill="#6ECCE5"/>
<path d="M350.054 244.483L351.571 241.855L350.705 241.355L349.188 243.983L350.054 244.483Z" fill="#6ECCE5"/>
<path d="M347.019 249.739L348.537 247.111L347.671 246.611L346.153 249.239L347.019 249.739Z" fill="#6ECCE5"/>
<path d="M343.985 254.996L345.502 252.368L344.636 251.868L343.119 254.496L343.985 254.996Z" fill="#6ECCE5"/>
<path d="M340.95 260.252L342.467 257.624L341.601 257.124L340.084 259.752L340.95 260.252Z" fill="#6ECCE5"/>
<path d="M337.915 265.508L339.432 262.88L338.566 262.38L337.049 265.008L337.915 265.508Z" fill="#6ECCE5"/>
<path d="M334.88 270.765L336.398 268.137L335.532 267.637L334.014 270.265L334.88 270.765Z" fill="#6ECCE5"/>
<path d="M331.846 276.021L333.363 273.393L332.497 272.893L330.98 275.521L331.846 276.021Z" fill="#6ECCE5"/>
<path d="M328.811 281.277L330.328 278.649L329.462 278.149L327.945 280.777L328.811 281.277Z" fill="#6ECCE5"/>
<path d="M325.776 286.534L327.293 283.906L326.427 283.406L324.91 286.034L325.776 286.534Z" fill="#6ECCE5"/>
<path d="M424.585 225.864L422.085 227.463L421.546 226.621L424.046 225.021L424.585 225.864Z" fill="#6ECCE5"/>
<path d="M419.585 229.063L417.085 230.662L416.546 229.82L419.046 228.22L419.585 229.063Z" fill="#6ECCE5"/>
<path d="M414.585 232.262L412.085 233.861L411.546 233.019L414.046 231.42L414.585 232.262Z" fill="#6ECCE5"/>
<path d="M409.585 235.461L407.085 237.061L406.546 236.218L409.046 234.619L409.585 235.461Z" fill="#6ECCE5"/>
<path d="M404.585 238.66L402.085 240.26L401.546 239.417L404.046 237.818L404.585 238.66Z" fill="#6ECCE5"/>
<path d="M399.585 241.859L397.085 243.459L396.546 242.617L399.046 241.017L399.585 241.859Z" fill="#6ECCE5"/>
<path d="M394.585 245.059L392.085 246.658L391.546 245.816L394.046 244.216L394.585 245.059Z" fill="#6ECCE5"/>
<path d="M389.585 248.258L387.085 249.857L386.546 249.015L389.046 247.415L389.585 248.258Z" fill="#6ECCE5"/>
<path d="M384.585 251.457L382.085 253.057L381.546 252.214L384.046 250.615L384.585 251.457Z" fill="#6ECCE5"/>
<path d="M379.585 254.656L377.085 256.256L376.547 255.413L379.046 253.814L379.585 254.656Z" fill="#6ECCE5"/>
<path d="M374.586 257.855L372.086 259.455L371.547 258.613L374.047 257.013L374.586 257.855Z" fill="#6ECCE5"/>
<path d="M369.586 261.054L367.086 262.654L366.547 261.812L369.047 260.212L369.586 261.054Z" fill="#6ECCE5"/>
<path d="M364.586 264.254L362.086 265.853L361.547 265.011L364.047 263.411L364.586 264.254Z" fill="#6ECCE5"/>
<path d="M359.586 267.453L357.086 269.052L356.547 268.21L359.047 266.61L359.586 267.453Z" fill="#6ECCE5"/>
<path d="M354.586 270.652L352.086 272.252L351.547 271.409L354.047 269.81L354.586 270.652Z" fill="#6ECCE5"/>
<path d="M349.586 273.851L347.086 275.451L346.547 274.608L349.047 273.009L349.586 273.851Z" fill="#6ECCE5"/>
<path d="M344.586 277.05L342.086 278.65L341.547 277.808L344.047 276.208L344.586 277.05Z" fill="#6ECCE5"/>
<path d="M339.586 280.249L337.086 281.849L336.547 281.007L339.047 279.407L339.586 280.249Z" fill="#6ECCE5"/>
<path d="M334.586 283.449L332.086 285.048L331.547 284.206L334.047 282.606L334.586 283.449Z" fill="#6ECCE5"/>
<path d="M329.586 286.648L327.086 288.247L326.547 287.405L329.047 285.805L329.586 286.648Z" fill="#6ECCE5"/>
<path d="M448.476 270.302L445.527 270.782L445.366 269.795L448.315 269.315L448.476 270.302Z" fill="#6ECCE5"/>
<path d="M442.578 271.263L439.629 271.743L439.468 270.756L442.417 270.276L442.578 271.263Z" fill="#6ECCE5"/>
<path d="M436.68 272.224L433.731 272.704L433.57 271.717L436.519 271.237L436.68 272.224Z" fill="#6ECCE5"/>
<path d="M430.782 273.184L427.833 273.665L427.673 272.678L430.621 272.197L430.782 273.184Z" fill="#6ECCE5"/>
<path d="M424.884 274.145L421.936 274.626L421.775 273.639L424.724 273.158L424.884 274.145Z" fill="#6ECCE5"/>
<path d="M418.987 275.106L416.038 275.587L415.877 274.6L418.826 274.119L418.987 275.106Z" fill="#6ECCE5"/>
<path d="M413.089 276.067L410.14 276.547L409.979 275.56L412.928 275.08L413.089 276.067Z" fill="#6ECCE5"/>
<path d="M407.191 277.028L404.242 277.508L404.081 276.521L407.03 276.041L407.191 277.028Z" fill="#6ECCE5"/>
<path d="M401.293 277.989L398.344 278.469L398.184 277.482L401.133 277.002L401.293 277.989Z" fill="#6ECCE5"/>
<path d="M395.396 278.949L392.447 279.43L392.286 278.443L395.235 277.962L395.396 278.949Z" fill="#6ECCE5"/>
<path d="M389.498 279.91L386.549 280.391L386.388 279.404L389.337 278.923L389.498 279.91Z" fill="#6ECCE5"/>
<path d="M383.6 280.871L380.651 281.351L380.49 280.364L383.439 279.884L383.6 280.871Z" fill="#6ECCE5"/>
<path d="M377.702 281.832L374.753 282.312L374.592 281.325L377.541 280.845L377.702 281.832Z" fill="#6ECCE5"/>
<path d="M371.804 282.793L368.855 283.273L368.695 282.286L371.644 281.806L371.804 282.793Z" fill="#6ECCE5"/>
<path d="M365.907 283.753L362.958 284.234L362.797 283.247L365.746 282.767L365.907 283.753Z" fill="#6ECCE5"/>
<path d="M360.009 284.714L357.06 285.195L356.899 284.208L359.848 283.727L360.009 284.714Z" fill="#6ECCE5"/>
<path d="M354.111 285.675L351.162 286.156L351.001 285.169L353.95 284.688L354.111 285.675Z" fill="#6ECCE5"/>
<path d="M348.213 286.636L345.264 287.116L345.104 286.129L348.052 285.649L348.213 286.636Z" fill="#6ECCE5"/>
<path d="M342.315 287.597L339.367 288.077L339.206 287.09L342.155 286.61L342.315 287.597Z" fill="#6ECCE5"/>
<path d="M336.418 288.558L333.469 289.038L333.308 288.051L336.257 287.571L336.418 288.558Z" fill="#6ECCE5"/>
<path d="M330.52 289.518L327.571 289.999L327.41 289.012L330.359 288.531L330.52 289.518Z" fill="#6ECCE5"/>
<path d="M327.553 290.52L330.485 291.044L330.309 292.029L327.377 291.504L327.553 290.52Z" fill="#6ECCE5"/>
<path d="M333.417 291.569L336.349 292.093L336.173 293.077L333.241 292.553L333.417 291.569Z" fill="#6ECCE5"/>
<path d="M339.281 292.617L342.213 293.141L342.036 294.126L339.105 293.601L339.281 292.617Z" fill="#6ECCE5"/>
<path d="M345.144 293.666L348.076 294.19L347.9 295.174L344.968 294.65L345.144 293.666Z" fill="#6ECCE5"/>
<path d="M351.008 294.714L353.94 295.238L353.764 296.223L350.832 295.698L351.008 294.714Z" fill="#6ECCE5"/>
<path d="M356.872 295.762L359.804 296.287L359.628 297.271L356.696 296.747L356.872 295.762Z" fill="#6ECCE5"/>
<path d="M362.736 296.811L365.668 297.335L365.492 298.32L362.56 297.795L362.736 296.811Z" fill="#6ECCE5"/>
<path d="M368.6 297.859L371.532 298.384L371.356 299.368L368.424 298.844L368.6 297.859Z" fill="#6ECCE5"/>
<path d="M374.464 298.908L377.395 299.432L377.219 300.417L374.288 299.892L374.464 298.908Z" fill="#6ECCE5"/>
<path d="M380.327 299.956L383.259 300.481L383.083 301.465L380.151 300.941L380.327 299.956Z" fill="#6ECCE5"/>
<path d="M386.191 301.005L389.123 301.529L388.947 302.513L386.015 301.989L386.191 301.005Z" fill="#6ECCE5"/>
<path d="M392.055 302.053L394.987 302.578L394.811 303.562L391.879 303.038L392.055 302.053Z" fill="#6ECCE5"/>
<path d="M397.919 303.102L400.851 303.626L400.675 304.61L397.743 304.086L397.919 303.102Z" fill="#6ECCE5"/>
<path d="M403.783 304.15L406.715 304.675L406.539 305.659L403.607 305.135L403.783 304.15Z" fill="#6ECCE5"/>
<path d="M409.646 305.199L412.578 305.723L412.402 306.707L409.47 306.183L409.646 305.199Z" fill="#6ECCE5"/>
<path d="M415.51 306.247L418.442 306.771L418.266 307.756L415.334 307.232L415.51 306.247Z" fill="#6ECCE5"/>
<path d="M421.374 307.296L424.306 307.82L424.13 308.804L421.198 308.28L421.374 307.296Z" fill="#6ECCE5"/>
<path d="M427.238 308.344L430.17 308.868L429.994 309.853L427.062 309.329L427.238 308.344Z" fill="#6ECCE5"/>
<path d="M433.102 309.393L436.034 309.917L435.858 310.901L432.926 310.377L433.102 309.393Z" fill="#6ECCE5"/>
<path d="M438.965 310.441L441.897 310.965L441.721 311.95L438.789 311.426L438.965 310.441Z" fill="#6ECCE5"/>
<path d="M444.829 311.49L447.761 312.014L447.585 312.998L444.653 312.474L444.829 311.49Z" fill="#6ECCE5"/>
<path d="M450.693 312.538L453.625 313.062L453.449 314.047L450.517 313.522L450.693 312.538Z" fill="#6ECCE5"/>
<path d="M456.557 313.587L459.489 314.111L459.313 315.095L456.381 314.571L456.557 313.587Z" fill="#6ECCE5"/>
<path d="M264.216 189.292L265.733 191.92L266.599 191.42L265.082 188.792L264.216 189.292Z" fill="#6ECCE5"/>
<path d="M267.251 194.548L268.768 197.176L269.634 196.676L268.117 194.048L267.251 194.548Z" fill="#6ECCE5"/>
<path d="M270.285 199.804L271.803 202.432L272.669 201.932L271.151 199.304L270.285 199.804Z" fill="#6ECCE5"/>
<path d="M273.32 205.061L274.837 207.689L275.703 207.189L274.186 204.561L273.32 205.061Z" fill="#6ECCE5"/>
<path d="M276.355 210.317L277.872 212.945L278.738 212.445L277.221 209.817L276.355 210.317Z" fill="#6ECCE5"/>
<path d="M279.389 215.573L280.907 218.201L281.773 217.701L280.256 215.073L279.389 215.573Z" fill="#6ECCE5"/>
<path d="M282.424 220.83L283.942 223.458L284.808 222.958L283.29 220.33L282.424 220.83Z" fill="#6ECCE5"/>
<path d="M285.459 226.086L286.976 228.714L287.842 228.214L286.325 225.586L285.459 226.086Z" fill="#6ECCE5"/>
<path d="M288.494 231.342L290.011 233.97L290.877 233.47L289.36 230.842L288.494 231.342Z" fill="#6ECCE5"/>
<path d="M291.528 236.599L293.046 239.227L293.912 238.727L292.395 236.099L291.528 236.599Z" fill="#6ECCE5"/>
<path d="M294.563 241.855L296.081 244.483L296.947 243.983L295.429 241.355L294.563 241.855Z" fill="#6ECCE5"/>
<path d="M297.598 247.111L299.115 249.739L299.981 249.239L298.464 246.611L297.598 247.111Z" fill="#6ECCE5"/>
<path d="M300.633 252.368L302.15 254.996L303.016 254.496L301.499 251.868L300.633 252.368Z" fill="#6ECCE5"/>
<path d="M303.667 257.624L305.185 260.252L306.051 259.752L304.533 257.124L303.667 257.624Z" fill="#6ECCE5"/>
<path d="M306.702 262.88L308.22 265.508L309.086 265.008L307.568 262.38L306.702 262.88Z" fill="#6ECCE5"/>
<path d="M309.737 268.137L311.254 270.765L312.12 270.265L310.603 267.637L309.737 268.137Z" fill="#6ECCE5"/>
<path d="M312.772 273.393L314.289 276.021L315.155 275.521L313.638 272.893L312.772 273.393Z" fill="#6ECCE5"/>
<path d="M315.806 278.649L317.324 281.277L318.19 280.777L316.672 278.149L315.806 278.649Z" fill="#6ECCE5"/>
<path d="M318.841 283.906L320.358 286.534L321.225 286.034L319.707 283.406L318.841 283.906Z" fill="#6ECCE5"/>
<path d="M224.049 227.463L221.549 225.864L222.088 225.021L224.588 226.621L224.049 227.463Z" fill="#6ECCE5"/>
<path d="M229.049 230.662L226.549 229.063L227.088 228.22L229.588 229.82L229.049 230.662Z" fill="#6ECCE5"/>
<path d="M234.049 233.861L231.549 232.262L232.088 231.42L234.588 233.019L234.049 233.861Z" fill="#6ECCE5"/>
<path d="M239.049 237.061L236.549 235.461L237.087 234.619L239.587 236.218L239.049 237.061Z" fill="#6ECCE5"/>
<path d="M244.048 240.26L241.548 238.66L242.087 237.818L244.587 239.417L244.048 240.26Z" fill="#6ECCE5"/>
<path d="M249.048 243.459L246.548 241.859L247.087 241.017L249.587 242.617L249.048 243.459Z" fill="#6ECCE5"/>
<path d="M254.048 246.658L251.548 245.059L252.087 244.216L254.587 245.816L254.048 246.658Z" fill="#6ECCE5"/>
<path d="M259.048 249.857L256.548 248.258L257.087 247.415L259.587 249.015L259.048 249.857Z" fill="#6ECCE5"/>
<path d="M264.048 253.056L261.548 251.457L262.087 250.615L264.587 252.214L264.048 253.056Z" fill="#6ECCE5"/>
<path d="M269.048 256.256L266.548 254.656L267.087 253.814L269.587 255.413L269.048 256.256Z" fill="#6ECCE5"/>
<path d="M274.048 259.455L271.548 257.855L272.087 257.013L274.587 258.612L274.048 259.455Z" fill="#6ECCE5"/>
<path d="M279.048 262.654L276.548 261.054L277.087 260.212L279.587 261.812L279.048 262.654Z" fill="#6ECCE5"/>
<path d="M284.048 265.853L281.548 264.254L282.087 263.411L284.587 265.011L284.048 265.853Z" fill="#6ECCE5"/>
<path d="M289.048 269.052L286.548 267.453L287.087 266.61L289.587 268.21L289.048 269.052Z" fill="#6ECCE5"/>
<path d="M294.048 272.251L291.548 270.652L292.087 269.81L294.587 271.409L294.048 272.251Z" fill="#6ECCE5"/>
<path d="M299.048 275.451L296.548 273.851L297.087 273.009L299.587 274.608L299.048 275.451Z" fill="#6ECCE5"/>
<path d="M304.048 278.65L301.548 277.05L302.087 276.208L304.587 277.807L304.048 278.65Z" fill="#6ECCE5"/>
<path d="M309.048 281.849L306.548 280.249L307.087 279.407L309.586 281.007L309.048 281.849Z" fill="#6ECCE5"/>
<path d="M314.047 285.048L311.547 283.449L312.086 282.606L314.586 284.206L314.047 285.048Z" fill="#6ECCE5"/>
<path d="M319.047 288.247L316.547 286.648L317.086 285.805L319.586 287.405L319.047 288.247Z" fill="#6ECCE5"/>
<path d="M197.234 270.302L200.193 270.782L200.353 269.795L197.394 269.315L197.234 270.302Z" fill="#6ECCE5"/>
<path d="M203.152 271.263L206.111 271.743L206.271 270.756L203.312 270.276L203.152 271.263Z" fill="#6ECCE5"/>
<path d="M209.07 272.224L212.029 272.704L212.189 271.717L209.23 271.237L209.07 272.224Z" fill="#6ECCE5"/>
<path d="M214.987 273.184L217.946 273.665L218.107 272.678L215.148 272.197L214.987 273.184Z" fill="#6ECCE5"/>
<path d="M220.905 274.145L223.864 274.626L224.024 273.639L221.065 273.158L220.905 274.145Z" fill="#6ECCE5"/>
<path d="M226.823 275.106L229.782 275.586L229.942 274.599L226.983 274.119L226.823 275.106Z" fill="#6ECCE5"/>
<path d="M232.741 276.067L235.7 276.547L235.86 275.56L232.901 275.08L232.741 276.067Z" fill="#6ECCE5"/>
<path d="M238.658 277.028L241.617 277.508L241.778 276.521L238.819 276.041L238.658 277.028Z" fill="#6ECCE5"/>
<path d="M244.576 277.989L247.535 278.469L247.695 277.482L244.736 277.001L244.576 277.989Z" fill="#6ECCE5"/>
<path d="M250.494 278.949L253.453 279.43L253.613 278.443L250.654 277.962L250.494 278.949Z" fill="#6ECCE5"/>
<path d="M256.412 279.91L259.371 280.391L259.531 279.403L256.572 278.923L256.412 279.91Z" fill="#6ECCE5"/>
<path d="M262.329 280.871L265.288 281.351L265.449 280.364L262.49 279.884L262.329 280.871Z" fill="#6ECCE5"/>
<path d="M268.247 281.832L271.206 282.312L271.366 281.325L268.407 280.845L268.247 281.832Z" fill="#6ECCE5"/>
<path d="M274.165 282.793L277.124 283.273L277.284 282.286L274.325 281.806L274.165 282.793Z" fill="#6ECCE5"/>
<path d="M280.083 283.753L283.042 284.234L283.202 283.247L280.243 282.766L280.083 283.753Z" fill="#6ECCE5"/>
<path d="M286 284.714L288.959 285.195L289.12 284.208L286.161 283.727L286 284.714Z" fill="#6ECCE5"/>
<path d="M291.918 285.675L294.877 286.155L295.037 285.168L292.078 284.688L291.918 285.675Z" fill="#6ECCE5"/>
<path d="M297.836 286.636L300.795 287.116L300.955 286.129L297.996 285.649L297.836 286.636Z" fill="#6ECCE5"/>
<path d="M303.754 287.597L306.713 288.077L306.873 287.09L303.914 286.61L303.754 287.597Z" fill="#6ECCE5"/>
<path d="M309.671 288.558L312.63 289.038L312.791 288.051L309.832 287.57L309.671 288.558Z" fill="#6ECCE5"/>
<path d="M315.589 289.518L318.548 289.999L318.708 289.012L315.749 288.531L315.589 289.518Z" fill="#6ECCE5"/>
<path d="M318.577 290.522L315.643 291.047L315.82 292.032L318.754 291.506L318.577 290.522Z" fill="#6ECCE5"/>
<path d="M312.709 291.573L309.775 292.098L309.952 293.083L312.886 292.557L312.709 291.573Z" fill="#6ECCE5"/>
<path d="M306.841 292.624L303.907 293.149L304.084 294.134L307.018 293.608L306.841 292.624Z" fill="#6ECCE5"/>
<path d="M300.973 293.675L298.039 294.2L298.215 295.185L301.15 294.659L300.973 293.675Z" fill="#6ECCE5"/>
<path d="M295.105 294.726L292.171 295.251L292.347 296.236L295.281 295.71L295.105 294.726Z" fill="#6ECCE5"/>
<path d="M289.237 295.777L286.303 296.302L286.479 297.287L289.413 296.761L289.237 295.777Z" fill="#6ECCE5"/>
<path d="M283.369 296.828L280.435 297.353L280.611 298.338L283.545 297.812L283.369 296.828Z" fill="#6ECCE5"/>
<path d="M277.501 297.879L274.567 298.404L274.743 299.389L277.677 298.863L277.501 297.879Z" fill="#6ECCE5"/>
<path d="M271.633 298.93L268.699 299.456L268.875 300.44L271.809 299.914L271.633 298.93Z" fill="#6ECCE5"/>
<path d="M265.765 299.981L262.831 300.507L263.007 301.491L265.941 300.965L265.765 299.981Z" fill="#6ECCE5"/>
<path d="M259.897 301.032L256.963 301.558L257.139 302.542L260.073 302.016L259.897 301.032Z" fill="#6ECCE5"/>
<path d="M254.029 302.083L251.095 302.609L251.271 303.593L254.205 303.067L254.029 302.083Z" fill="#6ECCE5"/>
<path d="M248.161 303.134L245.227 303.66L245.403 304.644L248.337 304.118L248.161 303.134Z" fill="#6ECCE5"/>
<path d="M242.293 304.185L239.359 304.711L239.535 305.695L242.469 305.169L242.293 304.185Z" fill="#6ECCE5"/>
<path d="M236.424 305.236L233.49 305.762L233.667 306.746L236.601 306.22L236.424 305.236Z" fill="#6ECCE5"/>
<path d="M230.556 306.287L227.622 306.813L227.799 307.797L230.733 307.271L230.556 306.287Z" fill="#6ECCE5"/>
<path d="M224.688 307.338L221.754 307.864L221.931 308.848L224.865 308.322L224.688 307.338Z" fill="#6ECCE5"/>
<path d="M218.82 308.389L215.886 308.915L216.063 309.899L218.997 309.373L218.82 308.389Z" fill="#6ECCE5"/>
<path d="M212.952 309.44L210.018 309.966L210.194 310.95L213.129 310.424L212.952 309.44Z" fill="#6ECCE5"/>
<path d="M207.084 310.491L204.15 311.017L204.326 312.001L207.26 311.475L207.084 310.491Z" fill="#6ECCE5"/>
<path d="M201.216 311.542L198.282 312.068L198.458 313.052L201.392 312.526L201.216 311.542Z" fill="#6ECCE5"/>
<path d="M195.348 312.593L192.414 313.119L192.59 314.103L195.524 313.577L195.348 312.593Z" fill="#6ECCE5"/>
<path d="M189.48 313.644L186.546 314.17L186.722 315.154L189.656 314.628L189.48 313.644Z" fill="#6ECCE5"/>
<path d="M331.136 290.079C331.136 294.538 327.522 298.152 323.063 298.152C318.605 298.152 314.991 294.538 314.991 290.079C314.991 285.621 318.605 282.007 323.063 282.007C327.522 282.007 331.136 285.621 331.136 290.079Z" fill="#003682"/>
<path fill-rule="evenodd" clip-rule="evenodd" d="M323.063 297.152C326.969 297.152 330.136 293.985 330.136 290.079C330.136 286.174 326.969 283.007 323.063 283.007C319.158 283.007 315.991 286.174 315.991 290.079C315.991 293.985 319.158 297.152 323.063 297.152ZM323.063 298.152C327.522 298.152 331.136 294.538 331.136 290.079C331.136 285.621 327.522 282.007 323.063 282.007C318.605 282.007 314.991 285.621 314.991 290.079C314.991 294.538 318.605 298.152 323.063 298.152Z" fill="#F8FBFB"/>
<path fill-rule="evenodd" clip-rule="evenodd" d="M323.064 446.354C397.972 446.354 458.696 385.63 458.696 310.722C458.696 235.815 397.972 175.09 323.064 175.09C248.156 175.09 187.432 235.815 187.432 310.722C187.432 385.63 248.156 446.354 323.064 446.354ZM323.064 447.354C398.524 447.354 459.696 386.182 459.696 310.722C459.696 235.262 398.524 174.09 323.064 174.09C247.604 174.09 186.432 235.262 186.432 310.722C186.432 386.182 247.604 447.354 323.064 447.354Z" fill="#FF6633"/>
<path d="M561.347 319.689C561.347 451.289 454.664 557.972 323.064 557.972C191.464 557.972 84.7808 451.289 84.7808 319.689C84.7808 188.088 191.464 81.4053 323.064 81.4053C454.664 81.4053 561.347 188.088 561.347 319.689Z" fill="#6ECCE5" fill-opacity="0.07"/>
<path fill-rule="evenodd" clip-rule="evenodd" d="M561.343 321.206L560.343 321.2C560.346 320.697 560.347 320.193 560.347 319.689C560.347 319.185 560.346 318.681 560.343 318.178L561.343 318.172C561.346 318.677 561.347 319.183 561.347 319.689C561.347 320.195 561.346 320.701 561.343 321.206ZM561.305 315.144L560.305 315.163C560.286 314.16 560.261 313.158 560.23 312.157L561.23 312.126C561.261 313.131 561.286 314.137 561.305 315.144ZM561.117 309.117L560.118 309.161C560.074 308.159 560.024 307.159 559.968 306.161L560.967 306.104C561.023 307.107 561.073 308.111 561.117 309.117ZM560.778 303.083L559.78 303.152C559.711 302.151 559.636 301.151 559.555 300.154L560.551 300.072C560.633 301.074 560.708 302.078 560.778 303.083ZM560.288 297.072L559.292 297.166C559.198 296.168 559.098 295.171 558.992 294.177L559.986 294.071C560.093 295.069 560.194 296.07 560.288 297.072ZM559.646 291.064L558.653 291.183C558.533 290.186 558.408 289.192 558.276 288.2L559.268 288.068C559.4 289.065 559.526 290.063 559.646 291.064ZM558.853 285.084L557.863 285.228C557.719 284.236 557.568 283.246 557.412 282.258L558.4 282.101C558.557 283.094 558.708 284.088 558.853 285.084ZM557.907 279.116L556.921 279.286C556.752 278.297 556.576 277.31 556.394 276.326L557.378 276.144C557.56 277.133 557.737 278.124 557.907 279.116ZM556.812 273.185L555.831 273.379C555.636 272.395 555.435 271.414 555.229 270.434L556.207 270.228C556.415 271.211 556.616 272.197 556.812 273.185ZM555.564 267.273L554.588 267.492C554.368 266.513 554.143 265.537 553.911 264.563L554.884 264.332C555.116 265.31 555.343 266.29 555.564 267.273ZM554.168 261.405L553.198 261.648C552.953 260.676 552.703 259.705 552.446 258.737L553.413 258.481C553.67 259.453 553.922 260.428 554.168 261.405ZM552.62 255.564L551.656 255.832C551.387 254.867 551.112 253.903 550.831 252.943L551.791 252.662C552.073 253.627 552.349 254.594 552.62 255.564ZM550.926 249.775L549.97 250.068C549.676 249.109 549.376 248.152 549.07 247.198L550.023 246.892C550.33 247.851 550.631 248.811 550.926 249.775ZM549.082 244.021L548.134 244.338C547.816 243.387 547.492 242.439 547.162 241.494L548.106 241.165C548.437 242.114 548.762 243.066 549.082 244.021ZM547.095 238.326L546.155 238.667C545.812 237.724 545.464 236.783 545.11 235.845L546.045 235.492C546.401 236.434 546.751 237.378 547.095 238.326ZM544.959 232.673L544.029 233.038C543.662 232.105 543.291 231.175 542.913 230.248L543.839 229.871C544.218 230.802 544.592 231.736 544.959 232.673ZM542.685 227.087L541.763 227.476C541.373 226.551 540.977 225.629 540.575 224.71L541.491 224.31C541.895 225.232 542.293 226.158 542.685 227.087ZM540.264 221.55L539.353 221.962C538.939 221.049 538.521 220.14 538.096 219.233L539.002 218.809C539.428 219.72 539.849 220.633 540.264 221.55ZM537.707 216.086C537.268 215.179 536.824 214.275 536.374 213.374L535.479 213.82C535.927 214.718 536.369 215.618 536.806 216.521L537.707 216.086ZM535.007 210.681L534.119 211.139C533.66 210.248 533.195 209.361 532.725 208.477L533.608 208.008C534.08 208.895 534.547 209.787 535.007 210.681ZM532.175 205.353L531.298 205.833C530.816 204.953 530.329 204.077 529.836 203.204L530.707 202.712C531.202 203.589 531.691 204.469 532.175 205.353ZM529.206 200.093L528.341 200.595C527.838 199.729 527.329 198.867 526.815 198.008L527.673 197.494C528.189 198.357 528.7 199.223 529.206 200.093ZM526.106 194.914L525.255 195.438C524.729 194.584 524.198 193.734 523.661 192.887L524.506 192.352C525.045 193.203 525.578 194.056 526.106 194.914ZM522.875 189.812L522.037 190.358C521.49 189.519 520.938 188.683 520.381 187.851L521.212 187.295C521.771 188.13 522.326 188.969 522.875 189.812ZM519.517 184.796L518.693 185.363C518.124 184.537 517.551 183.715 516.973 182.897L517.789 182.319C518.37 183.141 518.946 183.967 519.517 184.796ZM516.032 179.865L515.222 180.453C514.634 179.642 514.04 178.835 513.442 178.032L514.244 177.435C514.845 178.241 515.441 179.051 516.032 179.865ZM512.424 175.025L511.63 175.633C511.021 174.837 510.407 174.044 509.788 173.256L510.574 172.639C511.196 173.43 511.812 174.225 512.424 175.025ZM508.695 170.277L507.916 170.904C507.288 170.124 506.654 169.348 506.016 168.576L506.787 167.939C507.428 168.714 508.064 169.493 508.695 170.277ZM504.848 165.624L504.085 166.271C503.437 165.507 502.784 164.746 502.126 163.991L502.88 163.334C503.541 164.093 504.197 164.856 504.848 165.624ZM500.884 161.07L500.138 161.736C499.471 160.988 498.799 160.245 498.123 159.506L498.86 158.83C499.54 159.573 500.214 160.319 500.884 161.07ZM496.807 156.617L496.078 157.301C495.393 156.571 494.702 155.844 494.007 155.122L494.727 154.429C495.425 155.154 496.119 155.883 496.807 156.617ZM492.62 152.268L491.908 152.97C491.204 152.257 490.496 151.549 489.783 150.845L490.485 150.133C491.201 150.84 491.913 151.552 492.62 152.268ZM488.324 148.026L487.63 148.746C486.909 148.051 486.182 147.36 485.452 146.674L486.136 145.945C486.87 146.634 487.599 147.328 488.324 148.026ZM483.922 143.893L483.247 144.63C482.508 143.954 481.765 143.282 481.017 142.614L481.683 141.868C482.434 142.539 483.18 143.213 483.922 143.893ZM479.419 139.873L478.762 140.627C478.006 139.969 477.246 139.316 476.482 138.668L477.129 137.905C477.896 138.556 478.66 139.212 479.419 139.873ZM474.814 135.966L474.177 136.737C473.405 136.098 472.629 135.465 471.849 134.836L472.476 134.058C473.26 134.689 474.039 135.325 474.814 135.966ZM470.114 132.178L469.497 132.965C468.708 132.346 467.916 131.732 467.12 131.123L467.728 130.329C468.527 130.94 469.323 131.557 470.114 132.178ZM465.318 128.509L464.72 129.311C463.918 128.712 463.111 128.119 462.3 127.53L462.887 126.721C463.702 127.312 464.512 127.908 465.318 128.509ZM460.433 124.963C459.612 124.383 458.786 123.807 457.956 123.236L457.39 124.06C458.216 124.628 459.038 125.202 459.856 125.78L460.433 124.963ZM455.458 121.541L454.902 122.372C454.07 121.815 453.234 121.263 452.395 120.716L452.94 119.878C453.783 120.427 454.623 120.981 455.458 121.541ZM450.401 118.246L449.865 119.091C449.019 118.555 448.168 118.024 447.314 117.498L447.839 116.646C448.696 117.175 449.55 117.708 450.401 118.246ZM445.259 115.08L444.745 115.938C443.886 115.424 443.024 114.915 442.157 114.411L442.66 113.547C443.53 114.053 444.396 114.564 445.259 115.08ZM440.041 112.046L439.549 112.917C438.676 112.424 437.8 111.937 436.92 111.454L437.4 110.577C438.284 111.062 439.164 111.551 440.041 112.046ZM434.745 109.144L434.276 110.027C433.392 109.558 432.504 109.093 431.614 108.634L432.072 107.745C432.966 108.206 433.857 108.673 434.745 109.144ZM429.379 106.379L428.932 107.274C428.035 106.826 427.135 106.383 426.232 105.946L426.667 105.046C427.574 105.485 428.478 105.929 429.379 106.379ZM423.944 103.751L423.52 104.656C422.613 104.232 421.703 103.813 420.791 103.4L421.203 102.489C422.12 102.904 423.033 103.324 423.944 103.751ZM418.443 101.261L418.043 102.178C417.124 101.776 416.202 101.38 415.277 100.989L415.666 100.068C416.595 100.46 417.521 100.858 418.443 101.261ZM412.882 98.9135L412.505 99.8397C411.578 99.4621 410.648 99.0902 409.715 98.7241L410.08 97.7933C411.017 98.1609 411.951 98.5344 412.882 98.9135ZM407.261 96.7076L406.908 97.643C405.97 97.2888 405.029 96.9403 404.086 96.5976L404.427 95.6577C405.375 96.0018 406.319 96.3518 407.261 96.7076ZM401.588 94.6467L401.259 95.5909C400.314 95.2612 399.366 94.9372 398.415 94.6191L398.732 93.6708C399.687 93.9902 400.639 94.3156 401.588 94.6467ZM395.861 92.7301L395.555 93.6824C394.601 93.3766 393.645 93.0767 392.685 92.7827L392.978 91.8266C393.942 92.1218 394.902 92.423 395.861 92.7301ZM390.091 90.962L389.81 91.9217C388.85 91.6407 387.886 91.3655 386.921 91.0963L387.189 90.133C388.159 90.4033 389.126 90.6797 390.091 90.962ZM384.272 89.3399L384.016 90.3065C383.048 90.05 382.077 89.7994 381.105 89.5548L381.348 88.585C382.325 88.8306 383.3 89.0823 384.272 89.3399ZM378.421 87.8689C377.443 87.6362 376.463 87.4096 375.48 87.189L375.261 88.1647C376.24 88.3844 377.216 88.6101 378.19 88.8418L378.421 87.8689ZM372.525 86.5455C371.542 86.3379 370.556 86.1363 369.568 85.9409L369.374 86.9219C370.358 87.1165 371.34 87.3172 372.319 87.5239L372.525 86.5455ZM366.609 85.3749L366.427 86.3583C365.443 86.1765 364.456 86.0008 363.468 85.8312L363.637 84.8456C364.63 85.0159 365.62 85.1924 366.609 85.3749ZM360.652 84.3531L360.495 85.3408C359.507 85.1842 358.517 85.0337 357.525 84.8894L357.669 83.8998C358.665 84.0448 359.66 84.1959 360.652 84.3531ZM354.685 83.485L354.554 84.4763C353.561 84.3447 352.567 84.2193 351.571 84.1L351.689 83.1071C352.69 83.2269 353.688 83.3528 354.685 83.485ZM348.682 82.7664L348.576 83.7607C347.582 83.6544 346.585 83.5543 345.587 83.4603L345.681 82.4647C346.683 82.559 347.684 82.6596 348.682 82.7664ZM342.681 82.2012L342.6 83.1979C341.602 83.1166 340.602 83.0415 339.601 82.9726L339.67 81.9749C340.675 82.0441 341.679 82.1196 342.681 82.2012ZM336.649 81.7861L336.593 82.7845C335.594 82.7284 334.594 82.6784 333.592 82.6347L333.636 81.6356C334.642 81.6795 335.646 81.7297 336.649 81.7861ZM330.627 81.523L330.596 82.5226C329.596 82.4914 328.594 82.4664 327.59 82.4476L327.609 81.4478C328.616 81.4666 329.623 81.4917 330.627 81.523ZM324.582 81.41L324.575 82.41C324.072 82.4069 323.568 82.4053 323.064 82.4053C322.56 82.4053 322.056 82.4069 321.553 82.41L321.547 81.41C322.052 81.4069 322.558 81.4053 323.064 81.4053C323.57 81.4053 324.076 81.4069 324.582 81.41ZM318.52 81.4478L318.538 82.4476C317.535 82.4664 316.533 82.4914 315.533 82.5225L315.502 81.523C316.506 81.4917 317.512 81.4666 318.52 81.4478ZM312.493 81.6356L312.537 82.6346C311.535 82.6784 310.535 82.7283 309.536 82.7844L309.48 81.786C310.483 81.7297 311.487 81.6795 312.493 81.6356ZM306.459 81.9749L306.527 82.9725C305.526 83.0414 304.527 83.1166 303.529 83.1979L303.448 82.2012C304.45 82.1195 305.453 82.0441 306.459 81.9749ZM300.448 82.4646L300.541 83.4602C299.543 83.5542 298.547 83.6544 297.552 83.7607L297.446 82.7663C298.445 82.6596 299.445 82.559 300.448 82.4646ZM294.439 83.107L294.558 84.0999C293.562 84.2192 292.567 84.3446 291.575 84.4762L291.444 83.4849C292.44 83.3528 293.439 83.2268 294.439 83.107ZM288.46 83.8997L288.604 84.8893C287.611 85.0337 286.621 85.1841 285.633 85.3407L285.477 84.353C286.469 84.1958 287.463 84.0447 288.46 83.8997ZM282.492 84.8455L282.661 85.8311C281.672 86.0007 280.686 86.1764 279.701 86.3582L279.52 85.3748C280.508 85.1923 281.499 85.0158 282.492 84.8455ZM276.56 85.9408L276.754 86.9218C275.771 87.1164 274.789 87.3171 273.81 87.5238L273.603 86.5454C274.587 86.3378 275.572 86.1362 276.56 85.9408ZM270.648 87.1889L270.867 88.1646C269.889 88.3842 268.913 88.6099 267.939 88.8416L267.707 87.8688C268.685 87.6361 269.666 87.4095 270.648 87.1889ZM264.78 88.5849L265.024 89.5547C264.051 89.7993 263.081 90.0498 262.113 90.3064L261.857 89.3398C262.829 89.0821 263.803 88.8305 264.78 88.5849ZM258.939 90.1329L259.208 91.0961C258.242 91.3653 257.279 91.6405 256.318 91.9216L256.037 90.9618C257.002 90.6796 257.97 90.4032 258.939 90.1329ZM253.15 91.8265L253.443 92.7826C252.484 93.0766 251.527 93.3765 250.573 93.6823L250.268 92.73C251.226 92.4229 252.187 92.1217 253.15 91.8265ZM247.396 93.6706L247.713 94.619C246.763 94.9371 245.815 95.261 244.87 95.5908L244.54 94.6466C245.49 94.3154 246.441 93.9901 247.396 93.6706ZM241.701 95.6575L242.042 96.5975C241.099 96.9401 240.159 97.2886 239.221 97.6429L238.868 96.7074C239.809 96.3516 240.754 96.0017 241.701 95.6575ZM236.048 97.7931L236.414 98.724C235.481 99.0901 234.551 99.4619 233.624 99.8395L233.246 98.9134C234.177 98.5342 235.111 98.1608 236.048 97.7931ZM230.462 100.068L230.851 100.989C229.926 101.38 229.004 101.776 228.086 102.177L227.685 101.261C228.608 100.858 229.533 100.46 230.462 100.068ZM224.926 102.489L225.338 103.4C224.425 103.813 223.515 104.232 222.608 104.656L222.185 103.75C223.095 103.324 224.009 102.904 224.926 102.489ZM219.462 105.046L219.897 105.946C218.993 106.383 218.093 106.826 217.196 107.274L216.749 106.379C217.65 105.929 218.554 105.485 219.462 105.046ZM214.056 107.745L214.514 108.634C213.624 109.093 212.737 109.557 211.853 110.027L211.383 109.144C212.271 108.672 213.162 108.206 214.056 107.745ZM208.728 110.577L209.209 111.454C208.329 111.936 207.452 112.424 206.579 112.917L206.088 112.046C206.964 111.551 207.845 111.061 208.728 110.577ZM203.468 113.547L203.971 114.411C203.105 114.915 202.242 115.424 201.383 115.938L200.87 115.08C201.732 114.563 202.599 114.052 203.468 113.547ZM198.289 116.646L198.814 117.498C197.96 118.024 197.11 118.555 196.263 119.091L195.728 118.246C196.578 117.708 197.432 117.174 198.289 116.646ZM193.188 119.878L193.734 120.716C192.894 121.262 192.058 121.814 191.226 122.371L190.67 121.54C191.506 120.981 192.345 120.427 193.188 119.878ZM188.172 123.236L188.739 124.06C187.913 124.628 187.09 125.201 186.272 125.78L185.695 124.963C186.517 124.382 187.342 123.807 188.172 123.236ZM183.241 126.721L183.828 127.53C183.018 128.119 182.211 128.712 181.408 129.31L180.81 128.509C181.617 127.908 182.427 127.312 183.241 126.721ZM178.4 130.328L179.008 131.123C178.212 131.732 177.42 132.346 176.632 132.965L176.014 132.178C176.806 131.557 177.601 130.94 178.4 130.328ZM173.652 134.057L174.279 134.836C173.499 135.465 172.723 136.098 171.951 136.737L171.314 135.966C172.089 135.325 172.869 134.689 173.652 134.057ZM168.999 137.905L169.646 138.667C168.882 139.316 168.122 139.969 167.366 140.627L166.71 139.872C167.469 139.212 168.232 138.556 168.999 137.905ZM164.445 141.868L165.111 142.614C164.363 143.282 163.62 143.953 162.881 144.63L162.206 143.892C162.948 143.213 163.694 142.538 164.445 141.868ZM159.992 145.945L160.677 146.674C159.946 147.36 159.22 148.051 158.498 148.746L157.804 148.025C158.529 147.327 159.258 146.634 159.992 145.945ZM155.643 150.133L156.346 150.844C155.633 151.548 154.924 152.257 154.22 152.97L153.509 152.267C154.216 151.551 154.927 150.84 155.643 150.133ZM151.401 154.429L152.121 155.122C151.426 155.844 150.736 156.57 150.05 157.301L149.321 156.616C150.01 155.883 150.703 155.153 151.401 154.429ZM147.268 158.83L148.006 159.505C147.329 160.244 146.657 160.988 145.99 161.735L145.244 161.069C145.914 160.319 146.589 159.572 147.268 158.83ZM143.248 163.334L144.002 163.99C143.345 164.746 142.691 165.506 142.043 166.271L141.28 165.624C141.932 164.856 142.587 164.093 143.248 163.334ZM139.342 167.938L140.112 168.576C139.474 169.348 138.84 170.124 138.212 170.904L137.433 170.276C138.064 169.493 138.701 168.714 139.342 167.938ZM135.554 172.638L136.34 173.256C135.721 174.044 135.107 174.836 134.498 175.632L133.704 175.025C134.316 174.225 134.932 173.43 135.554 172.638ZM131.884 177.434L132.686 178.032C132.088 178.835 131.494 179.642 130.906 180.453L130.097 179.865C130.687 179.051 131.283 178.241 131.884 177.434ZM128.339 182.319L129.155 182.896C128.577 183.715 128.004 184.537 127.435 185.363L126.612 184.796C127.182 183.967 127.758 183.141 128.339 182.319ZM124.916 187.294L125.747 187.851C125.19 188.683 124.638 189.518 124.091 190.358L123.253 189.812C123.802 188.969 124.357 188.13 124.916 187.294ZM121.622 192.352L122.467 192.887C121.93 193.734 121.399 194.584 120.873 195.438L120.022 194.914C120.55 194.056 121.083 193.202 121.622 192.352ZM118.455 197.494L119.313 198.007C118.799 198.866 118.29 199.729 117.787 200.595L116.922 200.092C117.428 199.223 117.939 198.357 118.455 197.494ZM115.421 202.712L116.292 203.204C115.799 204.077 115.312 204.953 114.83 205.833L113.953 205.352C114.437 204.469 114.927 203.589 115.421 202.712ZM112.52 208.007L113.403 208.477C112.933 209.361 112.469 210.248 112.01 211.139L111.121 210.681C111.582 209.786 112.048 208.895 112.52 208.007ZM109.755 213.373L110.649 213.82C110.201 214.717 109.759 215.618 109.322 216.521L108.422 216.086C108.86 215.178 109.305 214.274 109.755 213.373ZM107.126 218.809L108.032 219.233C107.607 220.139 107.189 221.049 106.776 221.962L105.865 221.55C106.279 220.633 106.7 219.719 107.126 218.809ZM104.637 224.309L105.553 224.71C105.151 225.629 104.755 226.55 104.365 227.475L103.444 227.086C103.836 226.158 104.233 225.232 104.637 224.309ZM102.289 229.871L103.215 230.248C102.838 231.175 102.466 232.105 102.1 233.038L101.169 232.672C101.536 231.736 101.91 230.802 102.289 229.871ZM100.083 235.492L101.018 235.845C100.664 236.783 100.316 237.723 99.9731 238.667L99.0332 238.325C99.3773 237.378 99.7273 236.433 100.083 235.492ZM98.0222 241.164L98.9664 241.494C98.6366 242.439 98.3127 243.387 97.9946 244.337L97.0462 244.02C97.3657 243.066 97.691 242.114 98.0222 241.164ZM96.1056 246.892L97.0579 247.197C96.7521 248.151 96.4522 249.108 96.1582 250.067L95.2021 249.774C95.4973 248.811 95.7985 247.85 96.1056 246.892ZM94.3374 252.661C94.0551 253.626 93.7788 254.594 93.5084 255.563L94.4717 255.832C94.7409 254.866 95.0161 253.903 95.2972 252.942L94.3374 252.661ZM92.7153 258.481L93.682 258.737C93.4254 259.705 93.1749 260.675 92.9303 261.648L91.9605 261.404C92.2061 260.427 92.4577 259.453 92.7153 258.481ZM91.2444 264.331C91.0117 265.309 90.785 266.29 90.5644 267.272L91.5402 267.491C91.7598 266.513 91.9855 265.537 92.2172 264.563L91.2444 264.331ZM89.9209 270.227L90.8994 270.434C90.6926 271.413 90.492 272.395 90.2973 273.378L89.3164 273.184C89.5118 272.196 89.7133 271.211 89.9209 270.227ZM88.7504 276.144L89.7338 276.325C89.552 277.31 89.3763 278.296 89.2067 279.285L88.2211 279.116C88.3914 278.123 88.5678 277.132 88.7504 276.144ZM87.7286 282.101L88.7163 282.257C88.5597 283.245 88.4092 284.236 88.2649 285.228L87.2753 285.084C87.4202 284.087 87.5713 283.093 87.7286 282.101ZM86.8604 288.068L87.8518 288.199C87.7202 289.191 87.5947 290.186 87.4754 291.182L86.4825 291.063C86.6023 290.063 86.7283 289.064 86.8604 288.068ZM86.1418 294.07L87.1362 294.176C87.0299 295.171 86.9297 296.167 86.8357 297.165L85.8401 297.072C85.9345 296.069 86.0351 295.069 86.1418 294.07ZM85.5767 300.072L86.5734 300.153C86.4921 301.151 86.4169 302.15 86.348 303.151L85.3504 303.083C85.4196 302.077 85.495 301.074 85.5767 300.072ZM85.1615 306.104L86.1599 306.16C86.1038 307.158 86.0539 308.159 86.0101 309.161L85.0111 309.117C85.055 308.111 85.1052 307.107 85.1615 306.104ZM84.8985 312.126L85.898 312.157C85.8668 313.157 85.8418 314.159 85.8231 315.162L84.8232 315.144C84.8421 314.136 84.8672 313.13 84.8985 312.126ZM84.7855 318.171C84.7823 318.676 84.7808 319.182 84.7808 319.689C84.7808 320.195 84.7823 320.7 84.7855 321.206L85.7855 321.199C85.7823 320.696 85.7808 320.193 85.7808 319.689C85.7808 319.184 85.7823 318.681 85.7855 318.177L84.7855 318.171ZM84.8232 324.233L85.8231 324.214C85.8418 325.218 85.8668 326.219 85.898 327.22L84.8985 327.251C84.8672 326.246 84.8421 325.24 84.8232 324.233ZM85.011 330.26L86.0101 330.216C86.0538 331.218 86.1038 332.218 86.1599 333.217L85.1615 333.273C85.1051 332.27 85.055 331.266 85.011 330.26ZM85.3503 336.294L86.348 336.225C86.4169 337.226 86.492 338.226 86.5733 339.223L85.5766 339.305C85.495 338.303 85.4195 337.299 85.3503 336.294ZM85.8401 342.305L86.8357 342.211C86.9297 343.209 87.0298 344.206 87.1361 345.2L86.1418 345.306C86.035 344.308 85.9345 343.307 85.8401 342.305ZM86.4825 348.313L87.4754 348.195C87.5947 349.191 87.7201 350.185 87.8517 351.178L86.8604 351.309C86.7282 350.312 86.6022 349.314 86.4825 348.313ZM87.2752 354.293L88.2648 354.149C88.4091 355.141 88.5596 356.131 88.7162 357.119L87.7285 357.276C87.5713 356.284 87.4201 355.289 87.2752 354.293ZM88.221 360.261L89.2066 360.092C89.3762 361.08 89.5519 362.067 89.7337 363.051L88.7503 363.233C88.5677 362.244 88.3913 361.254 88.221 360.261ZM89.3163 366.192L90.2972 365.998C90.4919 366.982 90.6925 367.964 90.8993 368.943L89.9208 369.149C89.7132 368.166 89.5117 367.18 89.3163 366.192ZM90.5643 372.104L91.54 371.885C91.7597 372.864 91.9854 373.84 92.2171 374.814L91.2443 375.045C91.0116 374.067 90.7849 373.087 90.5643 372.104ZM91.9603 377.972L92.9302 377.729C93.1747 378.701 93.4253 379.672 93.6818 380.64L92.7152 380.896C92.4576 379.924 92.2059 378.949 91.9603 377.972ZM93.5083 383.813L94.4716 383.545C94.7408 384.51 95.016 385.474 95.2971 386.435L94.3373 386.715C94.055 385.75 93.7787 384.783 93.5083 383.813ZM95.2019 389.602L96.158 389.309C96.452 390.269 96.7519 391.225 97.0577 392.179L96.1054 392.485C95.7983 391.527 95.4972 390.566 95.2019 389.602ZM97.0461 395.357L97.9944 395.039C98.3125 395.99 98.6365 396.938 98.9662 397.883L98.022 398.212C97.6909 397.263 97.3655 396.311 97.0461 395.357ZM99.033 401.051L99.9729 400.71C100.316 401.653 100.664 402.594 101.018 403.532L100.083 403.885C99.7271 402.943 99.3771 401.999 99.033 401.051ZM101.169 406.704L102.099 406.339C102.466 407.272 102.837 408.202 103.215 409.129L102.289 409.506C101.91 408.575 101.536 407.641 101.169 406.704ZM103.443 412.29L104.365 411.901C104.755 412.826 105.151 413.748 105.553 414.667L104.637 415.068C104.233 414.145 103.835 413.219 103.443 412.29ZM105.864 417.827L106.775 417.415C107.189 418.328 107.607 419.237 108.032 420.144L107.126 420.568C106.7 419.657 106.279 418.744 105.864 417.827ZM108.421 423.291L109.322 422.856C109.759 423.759 110.201 424.66 110.649 425.557L109.754 426.003C109.304 425.103 108.86 424.198 108.421 423.291ZM111.121 428.696L112.009 428.238C112.468 429.129 112.933 430.016 113.403 430.9L112.52 431.369C112.048 430.482 111.581 429.591 111.121 428.696ZM113.953 434.025L114.83 433.544C115.312 434.424 115.799 435.3 116.292 436.173L115.421 436.665C114.926 435.788 114.437 434.908 113.953 434.025ZM116.922 439.284L117.787 438.782C118.29 439.648 118.799 440.51 119.313 441.369L118.455 441.883C117.939 441.02 117.428 440.154 116.922 439.284ZM120.022 444.463L120.873 443.939C121.399 444.793 121.93 445.643 122.467 446.49L121.622 447.025C121.083 446.175 120.55 445.321 120.022 444.463ZM123.253 449.565L124.091 449.019C124.638 449.858 125.19 450.694 125.747 451.526L124.916 452.082C124.357 451.247 123.802 450.408 123.253 449.565ZM126.611 454.581L127.435 454.014C128.004 454.84 128.577 455.662 129.155 456.481L128.339 457.058C127.758 456.236 127.182 455.41 126.611 454.581ZM130.096 459.512L130.906 458.924C131.494 459.735 132.088 460.542 132.686 461.345L131.884 461.942C131.283 461.136 130.687 460.326 130.096 459.512ZM133.704 464.352L134.498 463.745C135.107 464.541 135.721 465.333 136.34 466.121L135.554 466.738C134.932 465.947 134.316 465.152 133.704 464.352ZM137.433 469.101L138.212 468.473C138.84 469.253 139.474 470.029 140.112 470.801L139.341 471.438C138.7 470.663 138.064 469.884 137.433 469.101ZM141.28 473.753L142.043 473.106C142.691 473.871 143.344 474.631 144.002 475.387L143.248 476.043C142.587 475.284 141.931 474.521 141.28 473.753ZM145.244 478.307L145.99 477.642C146.657 478.389 147.329 479.132 148.005 479.871L147.268 480.547C146.588 479.805 145.914 479.058 145.244 478.307ZM149.321 482.761L150.05 482.076C150.736 482.807 151.426 483.533 152.121 484.255L151.401 484.948C150.703 484.223 150.009 483.494 149.321 482.761ZM153.508 487.11L154.22 486.407C154.924 487.12 155.632 487.828 156.345 488.533L155.643 489.244C154.927 488.537 154.215 487.826 153.508 487.11ZM157.804 491.352L158.498 490.631C159.22 491.326 159.946 492.017 160.676 492.703L159.992 493.432C159.258 492.743 158.529 492.05 157.804 491.352ZM162.206 495.484L162.881 494.747C163.62 495.423 164.363 496.095 165.111 496.763L164.445 497.509C163.694 496.839 162.948 496.164 162.206 495.484ZM166.709 499.505L167.366 498.75C168.122 499.408 168.882 500.061 169.646 500.71L168.999 501.472C168.232 500.821 167.468 500.165 166.709 499.505ZM171.314 503.411L171.951 502.64C172.723 503.279 173.499 503.912 174.279 504.541L173.652 505.319C172.868 504.688 172.089 504.052 171.314 503.411ZM176.014 507.199L176.631 506.412C177.42 507.031 178.212 507.645 179.008 508.254L178.4 509.048C177.601 508.437 176.805 507.82 176.014 507.199ZM180.81 510.868L181.408 510.066C182.21 510.665 183.017 511.258 183.828 511.847L183.241 512.656C182.426 512.065 181.616 511.469 180.81 510.868ZM185.695 514.414L186.272 513.597C187.09 514.175 187.912 514.749 188.738 515.317L188.172 516.141C187.342 515.57 186.516 514.995 185.695 514.414ZM190.67 517.836L191.226 517.006C192.058 517.563 192.894 518.114 193.733 518.661L193.188 519.499C192.345 518.95 191.505 518.396 190.67 517.836ZM195.727 521.131L196.263 520.286C197.109 520.822 197.96 521.353 198.814 521.879L198.289 522.731C197.432 522.203 196.578 521.669 195.727 521.131ZM200.869 524.297L201.383 523.439C202.242 523.953 203.104 524.462 203.971 524.966L203.468 525.83C202.598 525.324 201.732 524.813 200.869 524.297ZM206.087 527.331L206.579 526.46C207.452 526.953 208.328 527.441 209.208 527.923L208.728 528.8C207.844 528.316 206.964 527.826 206.087 527.331ZM211.383 530.233L211.852 529.35C212.736 529.82 213.624 530.284 214.514 530.743L214.056 531.632C213.162 531.171 212.271 530.705 211.383 530.233ZM216.749 532.998L217.196 532.103C218.093 532.551 218.993 532.994 219.896 533.431L219.461 534.331C218.554 533.892 217.65 533.448 216.749 532.998ZM222.184 535.627L222.608 534.721C223.515 535.145 224.425 535.564 225.337 535.977L224.925 536.888C224.008 536.473 223.095 536.053 222.184 535.627ZM227.685 538.116L228.085 537.199C229.004 537.601 229.926 537.997 230.851 538.388L230.462 539.309C229.533 538.917 228.607 538.519 227.685 538.116ZM233.246 540.464C234.177 540.843 235.111 541.216 236.048 541.584L236.413 540.653C235.48 540.287 234.55 539.915 233.623 539.537L233.246 540.464ZM238.867 542.67L239.221 541.734C240.158 542.088 241.099 542.437 242.042 542.78L241.701 543.719C240.753 543.375 239.809 543.025 238.867 542.67ZM244.54 544.73L244.869 543.786C245.814 544.116 246.762 544.44 247.713 544.758L247.396 545.706C246.441 545.387 245.489 545.062 244.54 544.73ZM250.267 546.647L250.573 545.695C251.527 546 252.484 546.3 253.443 546.594L253.15 547.551C252.186 547.255 251.226 546.954 250.267 546.647ZM256.037 548.415C257.002 548.697 257.969 548.974 258.939 549.244L259.207 548.281C258.242 548.012 257.278 547.736 256.318 547.455L256.037 548.415ZM261.856 550.037L262.112 549.071C263.08 549.327 264.051 549.578 265.023 549.822L264.78 550.792C263.803 550.546 262.828 550.295 261.856 550.037ZM267.707 551.508L267.938 550.535C268.912 550.767 269.888 550.993 270.867 551.212L270.648 552.188C269.665 551.968 268.685 551.741 267.707 551.508ZM273.603 552.832L273.809 551.853C274.788 552.06 275.77 552.261 276.754 552.455L276.56 553.436C275.572 553.241 274.586 553.039 273.603 552.832ZM279.519 554.002L279.701 553.019C280.685 553.201 281.672 553.376 282.66 553.546L282.491 554.531C281.499 554.361 280.508 554.185 279.519 554.002ZM285.476 555.024L285.633 554.036C286.621 554.193 287.611 554.343 288.603 554.488L288.459 555.477C287.463 555.332 286.468 555.181 285.476 555.024ZM291.443 555.892L291.574 554.901C292.567 555.032 293.561 555.158 294.557 555.277L294.439 556.27C293.438 556.15 292.44 556.024 291.443 555.892ZM297.446 556.611L297.552 555.616C298.546 555.723 299.543 555.823 300.541 555.917L300.447 556.912C299.445 556.818 298.444 556.717 297.446 556.611ZM303.447 557.176L303.529 556.179C304.526 556.26 305.526 556.336 306.527 556.405L306.458 557.402C305.453 557.333 304.449 557.258 303.447 557.176ZM309.479 557.591L309.535 556.593C310.534 556.649 311.534 556.699 312.536 556.742L312.492 557.741C311.486 557.698 310.482 557.647 309.479 557.591ZM315.501 557.854L315.532 556.855C316.533 556.886 317.534 556.911 318.538 556.93L318.519 557.929C317.512 557.91 316.506 557.885 315.501 557.854ZM321.546 557.967L321.553 556.967C322.056 556.97 322.56 556.972 323.064 556.972C323.568 556.972 324.072 556.97 324.575 556.967L324.581 557.967C324.076 557.97 323.57 557.972 323.064 557.972C322.558 557.972 322.052 557.97 321.546 557.967ZM327.608 557.929L327.59 556.93C328.593 556.911 329.595 556.886 330.595 556.855L330.626 557.854C329.622 557.885 328.616 557.91 327.608 557.929ZM333.635 557.742L333.591 556.742C334.593 556.699 335.594 556.649 336.592 556.593L336.648 557.591C335.645 557.647 334.641 557.698 333.635 557.742ZM339.669 557.402L339.601 556.405C340.602 556.336 341.601 556.261 342.599 556.179L342.68 557.176C341.678 557.258 340.675 557.333 339.669 557.402ZM345.68 556.912L345.587 555.917C346.585 555.823 347.581 555.723 348.576 555.616L348.682 556.611C347.683 556.718 346.683 556.818 345.68 556.912ZM351.689 556.27L351.57 555.277C352.566 555.158 353.561 555.032 354.553 554.901L354.684 555.892C353.688 556.024 352.689 556.15 351.689 556.27ZM357.668 555.477L357.524 554.488C358.517 554.343 359.507 554.193 360.495 554.036L360.651 555.024C359.659 555.181 358.665 555.332 357.668 555.477ZM363.636 554.532L363.467 553.546C364.456 553.376 365.442 553.201 366.427 553.019L366.608 554.002C365.62 554.185 364.629 554.361 363.636 554.532ZM369.568 553.436L369.374 552.455C370.357 552.261 371.339 552.06 372.318 551.853L372.525 552.832C371.541 553.039 370.556 553.241 369.568 553.436ZM375.48 552.188L375.261 551.213C376.239 550.993 377.215 550.767 378.189 550.535L378.421 551.508C377.443 551.741 376.462 551.968 375.48 552.188ZM381.348 550.792L381.104 549.822C382.077 549.578 383.047 549.327 384.015 549.071L384.271 550.037C383.299 550.295 382.325 550.547 381.348 550.792ZM387.189 549.244L386.92 548.281C387.886 548.012 388.849 547.737 389.81 547.456L390.091 548.415C389.126 548.698 388.159 548.974 387.189 549.244ZM392.978 547.551L392.685 546.595C393.644 546.301 394.601 546.001 395.555 545.695L395.86 546.647C394.902 546.954 393.941 547.255 392.978 547.551ZM398.732 545.706L398.415 544.758C399.365 544.44 400.313 544.116 401.258 543.786L401.588 544.731C400.638 545.062 399.687 545.387 398.732 545.706ZM404.427 543.72L404.086 542.78C405.029 542.437 405.969 542.089 406.907 541.734L407.261 542.67C406.319 543.025 405.374 543.375 404.427 543.72ZM410.08 541.584L409.714 540.653C410.647 540.287 411.577 539.915 412.504 539.538L412.882 540.464C411.951 540.843 411.017 541.216 410.08 541.584ZM415.666 539.309L415.277 538.388C416.202 537.997 417.124 537.601 418.042 537.2L418.443 538.116C417.52 538.519 416.595 538.917 415.666 539.309ZM421.202 536.888L420.79 535.977C421.703 535.564 422.613 535.145 423.52 534.721L423.943 535.627C423.033 536.053 422.119 536.473 421.202 536.888ZM426.667 534.331L426.231 533.431C427.135 532.994 428.035 532.552 428.932 532.104L429.379 532.998C428.478 533.448 427.574 533.892 426.667 534.331ZM432.072 531.632L431.614 530.743C432.504 530.284 433.391 529.82 434.275 529.35L434.745 530.233C433.857 530.705 432.966 531.171 432.072 531.632ZM437.4 528.8L436.919 527.923C437.799 527.441 438.676 526.953 439.549 526.46L440.04 527.331C439.164 527.826 438.284 528.316 437.4 528.8ZM442.66 525.83C443.53 525.325 444.396 524.814 445.258 524.297L444.745 523.439C443.886 523.953 443.023 524.462 442.157 524.966L442.66 525.83ZM447.839 522.731L447.314 521.879C448.168 521.353 449.018 520.822 449.865 520.286L450.4 521.131C449.55 521.669 448.696 522.203 447.839 522.731ZM452.94 519.499L452.394 518.661C453.234 518.115 454.07 517.563 454.902 517.006L455.458 517.837C454.622 518.396 453.783 518.95 452.94 519.499ZM457.956 516.141L457.389 515.317C458.215 514.749 459.038 514.176 459.856 513.597L460.433 514.414C459.611 514.995 458.786 515.57 457.956 516.141ZM462.887 512.656L462.3 511.847C463.11 511.259 463.917 510.665 464.72 510.067L465.318 510.868C464.512 511.469 463.701 512.065 462.887 512.656ZM467.728 509.049L467.12 508.254C467.916 507.645 468.708 507.031 469.496 506.412L470.114 507.199C469.323 507.82 468.527 508.437 467.728 509.049ZM472.476 505.32L471.849 504.541C472.629 503.912 473.405 503.279 474.177 502.641L474.814 503.411C474.039 504.052 473.259 504.688 472.476 505.32ZM477.129 501.472L476.482 500.71C477.246 500.061 478.006 499.408 478.762 498.75L479.418 499.505C478.659 500.165 477.896 500.821 477.129 501.472ZM481.683 497.509L481.017 496.763C481.765 496.096 482.508 495.424 483.247 494.747L483.922 495.485C483.18 496.164 482.434 496.839 481.683 497.509ZM486.136 493.432C486.87 492.743 487.599 492.05 488.324 491.352L487.63 490.631C486.908 491.327 486.182 492.017 485.451 492.703L486.136 493.432ZM490.485 489.244L489.782 488.533C490.495 487.829 491.204 487.12 491.908 486.407L492.62 487.11C491.912 487.826 491.201 488.537 490.485 489.244ZM494.727 484.948L494.007 484.255C494.702 483.533 495.392 482.807 496.078 482.076L496.807 482.761C496.118 483.494 495.425 484.224 494.727 484.948ZM498.86 480.547L498.122 479.872C498.799 479.133 499.471 478.389 500.138 477.642L500.884 478.308C500.214 479.058 499.539 479.805 498.86 480.547ZM502.88 476.043L502.126 475.387C502.784 474.631 503.437 473.871 504.085 473.107L504.848 473.753C504.196 474.521 503.541 475.284 502.88 476.043ZM506.786 471.439L506.016 470.801C506.654 470.029 507.288 469.253 507.916 468.473L508.695 469.101C508.064 469.884 507.427 470.663 506.786 471.439ZM510.574 466.739L509.788 466.121C510.407 465.333 511.021 464.541 511.63 463.745L512.424 464.352C511.812 465.152 511.196 465.947 510.574 466.739ZM514.244 461.943L513.442 461.345C514.04 460.542 514.634 459.735 515.222 458.925L516.032 459.512C515.441 460.326 514.845 461.136 514.244 461.943ZM517.789 457.058C518.37 456.236 518.946 455.41 519.516 454.581L518.693 454.014C518.124 454.84 517.551 455.662 516.973 456.481L517.789 457.058ZM521.212 452.083L520.381 451.526C520.938 450.694 521.49 449.859 522.037 449.019L522.875 449.565C522.326 450.408 521.771 451.247 521.212 452.083ZM524.506 447.025L523.661 446.49C524.198 445.643 524.729 444.793 525.255 443.939L526.106 444.463C525.578 445.321 525.045 446.175 524.506 447.025ZM527.673 441.883L526.815 441.37C527.329 440.511 527.838 439.648 528.341 438.782L529.206 439.285C528.7 440.154 528.189 441.021 527.673 441.883ZM530.707 436.665L529.836 436.173C530.329 435.301 530.816 434.424 531.298 433.544L532.175 434.025C531.691 434.908 531.201 435.788 530.707 436.665ZM533.608 431.37L532.725 430.9C533.195 430.016 533.659 429.129 534.118 428.238L535.007 428.697C534.546 429.591 534.08 430.482 533.608 431.37ZM536.374 426.004L535.479 425.557C535.927 424.66 536.369 423.76 536.806 422.856L537.706 423.291C537.268 424.199 536.823 425.103 536.374 426.004ZM539.002 420.568L538.096 420.144C538.521 419.238 538.939 418.328 539.352 417.415L540.263 417.827C539.849 418.744 539.428 419.658 539.002 420.568ZM541.491 415.068L540.575 414.667C540.977 413.749 541.373 412.827 541.763 411.902L542.684 412.291C542.292 413.22 541.895 414.145 541.491 415.068ZM543.839 409.507L542.913 409.129C543.29 408.202 543.662 407.272 544.028 406.339L544.959 406.705C544.592 407.642 544.218 408.576 543.839 409.507ZM546.045 403.885L545.11 403.532C545.464 402.594 545.812 401.654 546.155 400.71L547.095 401.052C546.751 401.999 546.401 402.944 546.045 403.885ZM548.106 398.213L547.162 397.883C547.491 396.938 547.815 395.99 548.133 395.04L549.082 395.357C548.762 396.312 548.437 397.263 548.106 398.213ZM550.022 392.485L549.07 392.18C549.376 391.226 549.676 390.269 549.97 389.31L550.926 389.603C550.631 390.566 550.33 391.527 550.022 392.485ZM551.791 386.716L550.831 386.435C551.112 385.474 551.387 384.511 551.656 383.545L552.62 383.814C552.349 384.784 552.073 385.751 551.791 386.716ZM553.413 380.896L552.446 380.64C552.703 379.672 552.953 378.702 553.198 377.729L554.168 377.973C553.922 378.95 553.67 379.924 553.413 380.896ZM554.884 375.046L553.911 374.814C554.143 373.841 554.368 372.864 554.588 371.886L555.564 372.105C555.343 373.087 555.116 374.068 554.884 375.046ZM556.207 369.15L555.229 368.943C555.435 367.964 555.636 366.983 555.831 365.999L556.812 366.193C556.616 367.181 556.415 368.166 556.207 369.15ZM557.378 363.233L556.394 363.052C556.576 362.067 556.752 361.081 556.921 360.092L557.907 360.261C557.737 361.254 557.56 362.245 557.378 363.233ZM558.399 357.276L557.412 357.12C557.568 356.132 557.719 355.142 557.863 354.149L558.853 354.293C558.708 355.29 558.557 356.284 558.399 357.276ZM559.268 351.31L558.276 351.178C558.408 350.186 558.533 349.191 558.653 348.195L559.645 348.314C559.526 349.314 559.4 350.313 559.268 351.31ZM559.986 345.307L558.992 345.201C559.098 344.206 559.198 343.21 559.292 342.212L560.288 342.306C560.194 343.308 560.093 344.308 559.986 345.307ZM560.551 339.305L559.555 339.224C559.636 338.226 559.711 337.227 559.78 336.226L560.778 336.294C560.708 337.3 560.633 338.303 560.551 339.305ZM560.967 333.273L559.968 333.217C560.024 332.219 560.074 331.218 560.118 330.217L561.117 330.26C561.073 331.266 561.023 332.271 560.967 333.273ZM561.23 327.252L560.23 327.22C560.261 326.22 560.286 325.218 560.305 324.215L561.305 324.233C561.286 325.241 561.261 326.247 561.23 327.252Z" fill="#6ECCE5"/>
</svg>
